HIERARCHY
ROOT joint_Root
{
	OFFSET 0.0 0.0 0.0
	CHANNELS 6 Xposition Yposition Zposition Zrotation Xrotation Yrotation 
	JOINT Hips
	{
		OFFSET -17.1583 93.1646 452.98
		CHANNELS 6 Xposition Yposition Zposition Zrotation Xrotation Yrotation 
		JOINT Spine
		{
			OFFSET 15.7357 0.0 0.0
			CHANNELS 6 Xposition Yposition Zposition Zrotation Xrotation Yrotation 
			JOINT Chest
			{
				OFFSET 8.98455 -0.406207 0.0
				CHANNELS 6 Xposition Yposition Zposition Zrotation Xrotation Yrotation 
				JOINT Neck
				{
					OFFSET 16.3773 0.0 0.0
					CHANNELS 6 Xposition Yposition Zposition Zrotation Xrotation Yrotation 
					JOINT Head
					{
						OFFSET 6.45672 0.0 0.0
						CHANNELS 6 Xposition Yposition Zposition Zrotation Xrotation Yrotation 
						End Site
						{
							OFFSET 0.0 0.0 0.0
						}
					}
				}
				JOINT Shoulder_L
				{
					OFFSET 12.9942 -0.242716 4.98039
					CHANNELS 6 Xposition Yposition Zposition Zrotation Xrotation Yrotation 
					JOINT UpperArm_L
					{
						OFFSET 5.34809 0.0 0.0
						CHANNELS 6 Xposition Yposition Zposition Zrotation Xrotation Yrotation 
						JOINT LowerArm_L
						{
							OFFSET 24.3286 1.87007e-05 0.0
							CHANNELS 6 Xposition Yposition Zposition Zrotation Xrotation Yrotation 
							JOINT Hand_L
							{
								OFFSET 22.2916 0.0 0.0
								CHANNELS 6 Xposition Yposition Zposition Zrotation Xrotation Yrotation 
								End Site
								{
									OFFSET 0.0 0.0 0.0
								}
							}
						}
					}
				}
				JOINT Shoulder_R
				{
					OFFSET 12.9945 -0.242716 -4.98039
					CHANNELS 6 Xposition Yposition Zposition Zrotation Xrotation Yrotation 
					JOINT UpperArm_R
					{
						OFFSET -5.34813 0.0 0.0
						CHANNELS 6 Xposition Yposition Zposition Zrotation Xrotation Yrotation 
						JOINT LowerArm_R
						{
							OFFSET -24.3289 0.000322201 0.0
							CHANNELS 6 Xposition Yposition Zposition Zrotation Xrotation Yrotation 
							JOINT Hand_R
							{
								OFFSET -22.2915 -0.000108084 0.0
								CHANNELS 6 Xposition Yposition Zposition Zrotation Xrotation Yrotation 
								End Site
								{
									OFFSET 0.0 0.0 0.0
								}
							}
						}
					}
				}
			}
		}
		JOINT UpperLeg_L
		{
			OFFSET -2.19248 -6.46944 0.0
			CHANNELS 6 Xposition Yposition Zposition Zrotation Xrotation Yrotation 
			JOINT LowerLeg_L
			{
				OFFSET 39.0811 0.0 -1.23785e-05
				CHANNELS 6 Xposition Yposition Zposition Zrotation Xrotation Yrotation 
				JOINT Foot_L
				{
					OFFSET 40.9854 0.0 -1.26872e-05
					CHANNELS 6 Xposition Yposition Zposition Zrotation Xrotation Yrotation 
					JOINT Toes_L
					{
						OFFSET 11.7543 0.0 0.0
						CHANNELS 6 Xposition Yposition Zposition Zrotation Xrotation Yrotation 
						End Site
						{
							OFFSET 0.0 0.0 0.0
						}
					}
				}
			}
		}
		JOINT UpperLeg_R
		{
			OFFSET -2.19251 6.46944 0.0
			CHANNELS 6 Xposition Yposition Zposition Zrotation Xrotation Yrotation 
			JOINT LowerLeg_R
			{
				OFFSET -39.0811 -0.00228153 -0.0401928
				CHANNELS 6 Xposition Yposition Zposition Zrotation Xrotation Yrotation 
				JOINT Foot_R
				{
					OFFSET -40.9854 0.0 0.0
					CHANNELS 6 Xposition Yposition Zposition Zrotation Xrotation Yrotation 
					JOINT Toes_R
					{
						OFFSET -11.7543 0.0 0.0
						CHANNELS 6 Xposition Yposition Zposition Zrotation Xrotation Yrotation 
						End Site
						{
							OFFSET 0.0 0.0 0.0
						}
					}
				}
			}
		}
	}
}
MOTION
Frames:	6
Frame Time:	0.0333333
0.000000 0.000000 0.000000 0.000000 0.000000 -0.000000 -1.812640 92.953500 2.455780 89.232300 1.048650 0.456557 15.735700 0.000005 -0.000001 86.158800 87.493900 -77.535600 8.984550 -0.406207 -0.000000 -2.622740 -1.114240 17.222100 16.377300 -0.000001 -0.000001 1.538190 1.269740 6.987080 6.456720 -0.000001 -0.000000 3.280150 1.806200 20.099000 12.994200 -0.242716 4.980390 -86.945400 -6.176260 -63.618400 5.348090 -0.000007 -0.000001 -30.358200 -56.747200 -65.691100 24.328600 0.000019 0.000005 0.570673 29.986600 -1.141590 22.291600 -0.000001 0.000005 43.574600 4.295000 19.868800 12.994500 -0.242716 -4.980390 89.251200 2.563520 -73.711700 -5.348130 -0.000001 -0.000004 -61.396500 2.707530 -2.294760 -24.328900 0.000322 -0.000009 1.726830 6.538070 -14.838700 -22.291500 -0.000108 -0.000004 7.100100 5.235830 1.804380 -2.192480 -6.469440 -0.000000 -173.150000 -11.447500 2.292720 39.081100 -0.000007 -0.000012 0.017129 -0.081387 11.885600 40.985400 -0.000006 -0.000013 -1.197280 18.192400 -68.602700 11.754300 -0.000000 0.000003 -0.001201 0.185855 -9.037380 -2.192510 6.469440 -0.000001 177.512000 4.557420 -177.719000 -39.081100 -0.002282 -0.040193 0.037892 -0.159531 12.222300 -40.985400 0.000008 0.000006 -3.810430 2.974600 -69.660900 -11.754300 -0.000006 -0.000006 -0.012824 0.291318 -4.731650
0.000000 0.000000 0.000000 0.000000 0.000000 -0.000000 -1.793160 92.950500 2.456290 89.243900 1.078990 0.445517 15.735700 0.000005 -0.000001 86.410100 87.492900 -77.812100 8.984550 -0.406207 -0.000000 -2.621790 -1.090100 17.172100 16.377300 -0.000001 -0.000001 1.554600 1.219320 6.993950 6.456720 -0.000001 -0.000000 3.287060 1.715230 19.963600 12.994200 -0.242716 4.980390 -86.954800 -6.155200 -63.611300 5.348090 -0.000007 -0.000001 -30.547900 -56.832500 -65.758400 24.328600 0.000019 0.000005 0.561431 29.999600 -1.122660 22.291600 -0.000001 0.000005 43.534400 4.296890 19.839800 12.994500 -0.242716 -4.980390 89.255700 2.543080 -73.680500 -5.348130 -0.000001 -0.000004 -61.512100 2.762810 -2.293620 -24.328900 0.000322 -0.000009 1.730210 6.522380 -14.900500 -22.291500 -0.000108 -0.000004 7.096480 5.233930 1.853560 -2.192480 -6.469440 -0.000000 -173.179000 -11.426800 2.253850 39.081100 -0.000007 -0.000012 0.017352 -0.082117 11.932200 40.985400 -0.000006 -0.000013 -1.157380 18.178600 -68.653000 11.754300 -0.000000 0.000003 -0.001170 0.185417 -9.055170 -2.192510 6.469440 -0.000001 177.492000 4.512310 -177.740000 -39.081100 -0.002282 -0.040193 0.038237 -0.160682 12.255000 -40.985400 0.000008 0.000006 -3.844410 2.947630 -69.681600 -11.754300 -0.000006 -0.000006 -0.012723 0.290633 -4.759710
0.000000 0.000000 0.000000 0.000000 0.000000 -0.000000 -1.785180 92.946700 2.465670 89.249700 1.113690 0.455151 15.735700 0.000005 -0.000001 86.508500 87.484600 -77.931500 8.984550 -0.406207 -0.000000 -2.605970 -1.079450 17.130400 16.377300 -0.000001 -0.000001 1.574470 1.193630 6.927780 6.456720 -0.000001 -0.000000 3.244430 1.628480 19.952200 12.994200 -0.242716 4.980390 -86.968400 -6.121560 -63.588800 5.348090 -0.000007 -0.000001 -30.280800 -56.821200 -65.524000 24.328600 0.000019 0.000005 0.507011 29.935300 -1.015820 22.291600 -0.000001 0.000005 43.373500 4.289680 19.950600 12.994500 -0.242716 -4.980390 89.256500 2.537990 -73.667000 -5.348130 -0.000001 -0.000004 -61.632200 2.812030 -2.294040 -24.328900 0.000322 -0.000009 1.725180 6.494140 -14.920500 -22.291500 -0.000108 -0.000004 7.049160 5.233550 1.863550 -2.192480 -6.469440 -0.000000 -173.195000 -11.384500 2.224090 39.081100 -0.000007 -0.000012 0.016312 -0.076675 12.010500 40.985400 -0.000006 -0.000013 -1.198650 18.157000 -68.667600 11.754300 -0.000000 0.000003 -0.001103 0.184491 -9.092810 -2.192510 6.469440 -0.000001 177.487000 4.515830 -177.716000 -39.081100 -0.002282 -0.040193 0.038769 -0.163095 12.257700 -40.985400 0.000008 0.000006 -3.788470 2.894410 -69.731400 -11.754300 -0.000006 -0.000006 -0.012940 0.292098 -4.699650
0.000000 0.000000 0.000000 0.000000 0.000000 -0.000000 -1.767700 92.944600 2.478730 89.261000 1.170390 0.467021 15.735700 0.000005 -0.000001 86.521900 87.479100 -77.963300 8.984550 -0.406207 -0.000000 -2.595620 -1.076520 17.093800 16.377300 -0.000001 -0.000001 1.598310 1.148170 6.915640 6.456720 -0.000001 -0.000000 3.209770 1.525900 19.885800 12.994200 -0.242716 4.980390 -86.989700 -6.072880 -63.568700 5.348090 -0.000007 -0.000001 -30.558300 -56.911800 -65.728700 24.328600 0.000019 0.000005 0.529015 30.039300 -1.056570 22.291600 -0.000001 0.000005 43.347700 4.295350 19.863300 12.994500 -0.242716 -4.980390 89.246900 2.562630 -73.617700 -5.348130 -0.000001 -0.000004 -61.713700 2.852880 -2.297040 -24.328900 0.000322 -0.000009 1.716950 6.452110 -14.944600 -22.291500 -0.000108 -0.000004 7.013540 5.235230 1.819820 -2.192480 -6.469440 -0.000000 -173.211000 -11.391700 2.265080 39.081100 -0.000007 -0.000012 0.017643 -0.083251 11.965900 40.985400 -0.000006 -0.000013 -1.074760 18.207800 -68.708700 11.754300 -0.000000 0.000003 -0.001066 0.183965 -9.114220 -2.192510 6.469440 -0.000001 177.461000 4.598290 -177.683000 -39.081100 -0.002282 -0.040193 0.038619 -0.162494 12.251100 -40.985400 0.000008 0.000006 -3.790290 2.931450 -69.724100 -11.754300 -0.000006 -0.000006 -0.012833 0.291375 -4.729290
0.000000 0.000000 0.000000 0.000000 0.000000 -0.000000 -1.760050 92.944600 2.492630 89.259500 1.192730 0.448418 15.735700 0.000005 -0.000001 86.466700 87.481500 -77.926300 8.984550 -0.406207 -0.000000 -2.600780 -1.079850 17.057300 16.377300 -0.000001 -0.000001 1.611760 1.113690 6.902690 6.456720 -0.000001 -0.000000 3.229550 1.506860 19.896200 12.994200 -0.242716 4.980390 -86.994500 -6.050230 -63.519900 5.348090 -0.000007 -0.000001 -30.505700 -56.910100 -65.708000 24.328600 0.000019 0.000005 0.513876 29.948400 -1.029160 22.291600 -0.000001 0.000005 43.338400 4.286570 19.998500 12.994500 -0.242716 -4.980390 89.234100 2.611330 -73.647700 -5.348130 -0.000001 -0.000004 -61.801200 2.833960 -2.272060 -24.328900 0.000322 -0.000009 1.696990 6.385190 -14.925800 -22.291500 -0.000108 -0.000004 7.027550 5.239440 1.710270 -2.192480 -6.469440 -0.000000 -173.228000 -11.310400 2.237570 39.081100 -0.000007 -0.000012 0.017794 -0.083849 11.981700 40.985400 -0.000006 -0.000013 -1.097190 18.154400 -68.715900 11.754300 -0.000000 0.000003 -0.001084 0.184226 -9.103610 -2.192510 6.469440 -0.000001 177.442000 4.633450 -177.704000 -39.081100 -0.002282 -0.040193 0.037667 -0.157837 12.271600 -40.985400 0.000008 0.000006 -3.958380 2.955860 -69.703100 -11.754300 -0.000006 -0.000006 -0.012741 0.290754 -4.754740
0.000000 0.000000 0.000000 0.000000 0.000000 -0.000000 -1.746180 92.934100 2.528350 89.265100 1.233580 0.557505 15.735700 0.000005 -0.000001 86.474600 87.453900 -77.947200 8.984550 -0.406207 -0.000000 -2.546110 -1.077300 17.031500 16.377300 -0.000001 -0.000001 1.602620 1.085500 6.915010 6.456720 -0.000001 -0.000000 3.348590 1.467270 19.834300 12.994200 -0.242716 4.980390 -87.008100 -6.025920 -63.532400 5.348090 -0.000007 -0.000001 -30.506400 -56.904500 -65.701900 24.328600 0.000019 0.000005 0.538225 30.068900 -1.074010 22.291600 -0.000001 0.000005 43.436900 4.288580 19.967700 12.994500 -0.242716 -4.980390 89.232600 2.611760 -73.618900 -5.348130 -0.000001 -0.000004 -61.894100 2.904320 -2.255570 -24.328900 0.000322 -0.000009 1.698790 6.380510 -14.951400 -22.291500 -0.000108 -0.000004 7.000150 5.234150 1.847960 -2.192480 -6.469440 -0.000000 -173.211000 -11.365500 2.328090 39.081100 -0.000007 -0.000012 0.018357 -0.085837 12.071700 40.985400 -0.000006 -0.000013 -1.019090 18.240200 -68.827400 11.754300 -0.000000 0.000003 -0.001218 0.186088 -9.027900 -2.192510 6.469440 -0.000001 177.421000 4.651400 -177.558000 -39.081100 -0.002282 -0.040193 0.038084 -0.159804 12.268000 -40.985400 0.000008 0.000006 -3.839660 2.945110 -69.742600 -11.754300 -0.000006 -0.000006 -0.012663 0.290231 -4.776190
